<?xml version="1.0" encoding="utf-8"?>
<!-- Generator: Adobe Illustrator 25.4.1, SVG Export Plug-In . SVG Version: 6.00 Build 0)  -->
<svg version="1.0" id="Capa_1" xmlns="http://www.w3.org/2000/svg" xmlns:xlink="http://www.w3.org/1999/xlink" x="0px" y="0px"
	 viewBox="0 0 595.28 841.89" style="enable-background:new 0 0 595.28 841.89;" xml:space="preserve">
<style type="text/css">
	.st0{fill:#FFFFFF;}
	.st1{fill:#FBF7CD;}
</style>
<g id="SvgjsG15609" transform="matrix(3.0172413793103448,0,0,3.0172413793103448,-1.6379311783560393,-10.327585976699302)">
	<path class="st0" d="M24.41,142.19h-2.86v-19.96h2.86V142.19z M28.82,128.33h3.45l8.38,9.63v-9.63h2.76v13.86h-2.76l-7.71-9.02
		v9.02h-2.76v-11.8L28.82,128.33z M56.68,131.09h-2.76v8.32h2.76c1.34,0,2.37-0.37,3.1-1.1c0.73-0.73,1.1-1.77,1.1-3.1
		s-0.36-2.36-1.08-3.06C59.07,131.44,58.03,131.09,56.68,131.09z M49.32,131.09l-1.23-2.76h8.59c1.39,0,2.62,0.26,3.68,0.79
		s1.88,1.3,2.45,2.31c0.59,1.03,0.88,2.27,0.88,3.71c0,1.44-0.29,2.68-0.87,3.75c-0.58,1.06-1.4,1.88-2.46,2.45
		c-1.06,0.57-2.29,0.86-3.68,0.86h-5.65v-11.11C51.03,131.09,49.32,131.09,49.32,131.09z M75.22,142.62h-0.05
		c-2.03,0-3.62-0.47-4.76-1.42c-1.27-1-1.9-2.48-1.9-4.44v-8.43h2.76v8.43c0,1.12,0.37,1.93,1.1,2.41c0.62,0.45,1.57,0.67,2.84,0.67
		s2.22-0.22,2.86-0.67c0.71-0.48,1.07-1.28,1.07-2.41v-8.43h2.76v8.43c0,1.96-0.62,3.44-1.87,4.44
		C78.85,142.15,77.26,142.62,75.22,142.62z M98.67,129.62l-1.85,2.14c-0.98-0.8-2.35-1.2-4.12-1.2c-0.7,0-1.34,0.15-1.93,0.45
		c-0.59,0.3-0.88,0.65-0.88,1.04c0,0.32,0.06,0.56,0.19,0.72c0.16,0.23,0.45,0.39,0.86,0.48c0.46,0.12,1.12,0.19,1.98,0.19
		c1.86,0,3.32,0.21,4.39,0.62c0.95,0.34,1.61,0.85,1.98,1.53c0.3,0.55,0.45,1.26,0.45,2.11c0,1.61-0.67,2.84-2.01,3.69
		c-1.27,0.82-2.93,1.23-5,1.23c-1.2,0-2.35-0.26-3.47-0.79c-1.12-0.53-2.06-1.24-2.82-2.15l1.98-2.01l0.24,0.27
		c0.37,0.39,0.68,0.7,0.91,0.91c0.41,0.34,0.84,0.6,1.28,0.78c0.55,0.21,1.18,0.32,1.87,0.32c1.28,0,2.32-0.2,3.1-0.59
		c0.78-0.39,1.18-0.95,1.18-1.66c0-0.61-0.35-1.02-1.04-1.23c-0.62-0.2-1.7-0.29-3.24-0.29c-1.78,0-3.15-0.31-4.09-0.94
		c-1.09-0.68-1.63-1.74-1.63-3.18c0-0.82,0.27-1.55,0.8-2.19c0.5-0.62,1.19-1.11,2.06-1.46c0.87-0.35,1.83-0.52,2.86-0.52
		c1.11,0,2.1,0.12,2.97,0.35C96.73,128.49,97.72,128.96,98.67,129.62L98.67,129.62z M115.42,131.09h-5.22v11.11h-2.76v-11.11h-5.03
		v-2.76h13.01C115.42,128.33,115.42,131.09,115.42,131.09z M129.81,136.55l0.86,1.45c0.3,0.5,0.69,0.85,1.15,1.04
		c0.32,0.12,0.71,0.19,1.18,0.19h0.96v2.97h-1.2c-0.59,0-1.05-0.04-1.39-0.11c-0.5-0.11-0.95-0.3-1.36-0.59
		c-0.45-0.34-0.87-0.84-1.28-1.5l-2.14-3.48h-0.19c-1.02,0-1.79,0.06-2.33,0.19c-0.43,0.09-0.95,0.29-1.55,0.62v4.87h-2.81v-13.86
		h8.94c0.84,0,1.59,0.18,2.25,0.54s1.18,0.86,1.55,1.5c0.37,0.64,0.56,1.36,0.56,2.14c0,1.03-0.27,1.89-0.82,2.56
		C131.64,135.73,130.85,136.23,129.81,136.55L129.81,136.55z M126.39,133.76h2.25c0.45,0,0.82-0.12,1.11-0.35
		c0.29-0.23,0.44-0.56,0.44-0.99c0-0.55-0.21-0.93-0.64-1.12c-0.3-0.14-0.77-0.21-1.39-0.21h-5.65v3.48
		C123.49,134.03,124.78,133.76,126.39,133.76z M142.04,142.19h-2.73v-13.86h2.73V142.19z M156.44,137.59h0.37l-2.7-5.14l-3.29,6.34
		c0.61-0.32,1.29-0.58,2.06-0.78C153.99,137.73,155.18,137.59,156.44,137.59L156.44,137.59z M152.7,129.75l-0.91-1.74h2.97
		l7.49,14.18h-3.02l-1.1-2.09h-1.66c-1.05,0-2.17,0.12-3.35,0.37c-1,0.2-1.91,0.46-2.73,0.8c-0.75,0.29-1.2,0.54-1.36,0.75
		l-0.08,0.16h-2.89L152.7,129.75z M176.75,142.19h-10.22v-13.86h2.86v11.08h7.36V142.19z"/>
</g>
<g id="SvgjsG15610" transform="matrix(1.7032342485369063,0,0,1.7032342485369063,24.002305302322217,63.66627628553114)">
	<path class="st1" d="M43.73,226.99l6.42,14.85h0.05l6.48-14.85h3.26v18.95H57.7v-15.9h-0.05l-6.8,15.9h-1.36l-6.8-15.9h-0.05v15.9
		h-2.25v-18.95C40.39,226.99,43.73,226.99,43.73,226.99z M87.46,226.99v11.4c0,1.93,0.41,3.39,1.23,4.39c0.82,1,2.04,1.52,3.67,1.55
		c1.62-0.02,2.84-0.53,3.65-1.54s1.23-2.44,1.24-4.3v-11.51h2.25v11.8c0,2.41-0.62,4.28-1.87,5.61c-1.25,1.33-3.01,2-5.27,2.02
		c-2.23,0-3.97-0.67-5.23-2.02c-1.26-1.35-1.9-3.22-1.91-5.63v-11.77H87.46z M136.67,226.99v2.09h-9.66v5.94h9.02v2.09h-9.02v6.74
		h10.14v2.09h-12.39v-18.95C124.76,226.99,136.67,226.99,136.67,226.99z M167.04,226.99c2,0,3.54,0.41,4.63,1.22
		c1.09,0.81,1.64,1.96,1.66,3.44c0,1.09-0.3,2-0.9,2.73s-1.4,1.25-2.42,1.55v0.05c1.23,0.11,2.25,0.6,3.06,1.49
		c0.81,0.88,1.22,1.94,1.22,3.17c0,1.68-0.63,2.97-1.9,3.89c-1.27,0.92-3.07,1.39-5.41,1.4h-5.73v-18.95L167.04,226.99
		L167.04,226.99z M166.72,235.01c1.37,0,2.42-0.25,3.13-0.74c0.71-0.49,1.07-1.27,1.07-2.34c0-1.87-1.32-2.83-3.96-2.86h-3.45v5.94
		H166.72z M167.42,243.85c1.36,0,2.44-0.3,3.25-0.9c0.81-0.6,1.22-1.4,1.22-2.4c0-1.14-0.4-2-1.2-2.58c-0.8-0.58-1.9-0.87-3.29-0.87
		h-3.88v6.74H167.42z M201,226.99v16.86h8.67v2.09h-10.92v-18.95H201z M244.67,226.99v2.09h-9.66v5.94h9.02v2.09h-9.02v6.74h10.14
		v2.09h-12.39v-18.95C232.76,226.99,244.67,226.99,244.67,226.99z M274.8,226.5c2.3,0,4.07,0.74,5.3,2.22l-1.85,1.61
		c-0.71-1.12-1.86-1.7-3.45-1.74c-1.2,0-2.17,0.29-2.92,0.86s-1.12,1.35-1.12,2.33c0,0.86,0.29,1.53,0.86,2.03
		c0.57,0.5,1.64,0.99,3.21,1.47c2.03,0.59,3.47,1.31,4.32,2.15c0.85,0.85,1.27,1.99,1.27,3.44c0,1.68-0.62,3.02-1.87,4.01
		c-1.25,1-2.85,1.51-4.79,1.53c-1.3,0-2.46-0.23-3.48-0.7s-1.8-1.11-2.35-1.93l1.93-1.58c0.41,0.68,0.98,1.2,1.71,1.57
		c0.73,0.37,1.51,0.55,2.33,0.55c1.12,0,2.09-0.32,2.9-0.95s1.22-1.41,1.22-2.34c0-0.84-0.24-1.5-0.71-1.98
		c-0.47-0.48-1.25-0.89-2.34-1.23l-2.17-0.72c-1.62-0.55-2.77-1.24-3.44-2.07c-0.67-0.83-1-1.85-1-3.06c0-1.61,0.6-2.91,1.79-3.92
		C271.34,227.04,272.9,226.52,274.8,226.5z"/>
</g>
</svg>
