<svg xmlns="http://www.w3.org/2000/svg" viewBox="0 0 468.28 124.89"><defs><style>.cls-1{fill:#fff;}.cls-2{fill:#fbf7cd;}</style></defs><g id="Capa_2" data-name="Capa 2"><g id="Capa_1-2" data-name="Capa 1"><g id="SvgjsG15609"><path class="cls-1" d="M8.63,60.22H0V0H8.63ZM21.94,18.41h10.4L57.63,47.46v-29H66V60.22H57.63L34.37,33V60.22H26V24.62ZM106,26.73H97.67V51.84H106c4,0,7.15-1.12,9.35-3.32s3.32-5.34,3.32-9.36-1.09-7.12-3.26-9.23S110.07,26.73,106,26.73Zm-22.21,0-3.71-8.32H106a24.53,24.53,0,0,1,11.1,2.38,17,17,0,0,1,7.39,7A22.19,22.19,0,0,1,127.15,39a23.31,23.31,0,0,1-2.63,11.32,18,18,0,0,1-7.42,7.39A23.12,23.12,0,0,1,106,60.25H89V26.73Zm78.15,34.79h-.16c-6.12,0-10.92-1.42-14.36-4.28q-5.74-4.53-5.73-13.4V18.41H150V43.84c0,3.38,1.11,5.82,3.32,7.27,1.87,1.36,4.73,2,8.57,2s6.69-.66,8.62-2c2.15-1.45,3.23-3.86,3.23-7.27V18.41h8.33V43.84q0,8.86-5.64,13.4C172.89,60.1,168.09,61.52,161.94,61.52ZM232.69,22.3l-5.58,6.45c-3-2.41-7.09-3.62-12.43-3.62a12.7,12.7,0,0,0-5.83,1.36c-1.78.91-2.65,2-2.65,3.14a3.41,3.41,0,0,0,.57,2.17,4.05,4.05,0,0,0,2.6,1.45,24.88,24.88,0,0,0,6,.57c5.61,0,10,.64,13.25,1.87a10.45,10.45,0,0,1,6,4.62,13.22,13.22,0,0,1,1.36,6.37,12.39,12.39,0,0,1-6.07,11.13c-3.83,2.47-8.84,3.71-15.08,3.71a24.12,24.12,0,0,1-10.47-2.38,24.53,24.53,0,0,1-8.51-6.49l6-6.06.73.81c1.11,1.18,2,2.11,2.74,2.75a15.15,15.15,0,0,0,3.86,2.35,15.94,15.94,0,0,0,5.65,1,21.16,21.16,0,0,0,9.35-1.78c2.35-1.18,3.56-2.87,3.56-5,0-1.84-1.06-3.08-3.14-3.71-1.87-.61-5.13-.88-9.77-.88-5.37,0-9.51-.93-12.34-2.84-3.29-2-4.92-5.25-4.92-9.59a10.09,10.09,0,0,1,2.41-6.61,14.92,14.92,0,0,1,6.22-4.4,22.88,22.88,0,0,1,8.63-1.57,35.32,35.32,0,0,1,9,1.05,26.85,26.85,0,0,1,9,4.17Zm50.54,4.43H267.48V60.25h-8.33V26.73H244V18.41h39.26Zm43.42,16.48,2.59,4.37a7.34,7.34,0,0,0,3.47,3.14,10.17,10.17,0,0,0,3.56.57h2.9v9h-3.62a21.75,21.75,0,0,1-4.2-.33,11,11,0,0,1-4.1-1.78,16.35,16.35,0,0,1-3.86-4.52l-6.46-10.5h-.57a32.14,32.14,0,0,0-7,.57,17.21,17.21,0,0,0-4.68,1.87V60.25h-8.48V18.44h27a14.05,14.05,0,0,1,6.79,1.62,11.83,11.83,0,0,1,4.67,4.53,12.69,12.69,0,0,1,1.69,6.46,11.78,11.78,0,0,1-2.47,7.72,15,15,0,0,1-7.18,4.44Zm-10.32-8.42h6.79a5.23,5.23,0,0,0,3.35-1.06,3.6,3.6,0,0,0,1.32-3,3.33,3.33,0,0,0-1.93-3.38,10.33,10.33,0,0,0-4.19-.64H304.62v10.5C307.58,35.6,311.47,34.79,316.33,34.79Zm47.22,25.43h-8.24V18.41h8.24ZM407,46.34h1.11L400,30.84,390,50a29.07,29.07,0,0,1,6.21-2.36A44.12,44.12,0,0,1,407,46.34ZM395.71,22.69,393,17.44h9l22.6,42.78h-9.12l-3.32-6.3h-5A49.13,49.13,0,0,0,397,55a44.34,44.34,0,0,0-8.24,2.42c-2.26.87-3.62,1.63-4.1,2.26l-.24.48h-8.72Zm72.57,37.53H437.44V18.41h8.63V51.84h22.21Z"/></g><g id="SvgjsG15610"><path class="cls-2" d="M35.1,91.81,46,117.11h.08l11-25.3h5.55v32.28H58.9V97h-.09L47.23,124.09H44.91L33.33,97h-.09v27.08H29.41V91.81Zm74.48,0v19.42c0,3.29.7,5.77,2.1,7.48a7.81,7.81,0,0,0,6.25,2.64c2.76,0,4.84-.91,6.22-2.63s2.09-4.15,2.11-7.32V91.8h3.83v20.09q0,6.17-3.18,9.56t-9,3.44c-3.8,0-6.76-1.14-8.91-3.44s-3.23-5.48-3.25-9.59v-20Zm83.82,0v3.56H177v10.12h15.36v3.56H177v11.48h17.27v3.56H173.11V91.81Zm51.73,0c3.4,0,6,.7,7.88,2.08a7,7,0,0,1,2.83,5.86,7.08,7.08,0,0,1-1.53,4.65,8.18,8.18,0,0,1-4.12,2.64v.09a8.11,8.11,0,0,1,4.05,14.56c-2.16,1.57-5.23,2.37-9.22,2.38h-9.75V91.8Zm-.55,13.66a9.35,9.35,0,0,0,5.33-1.26,4.49,4.49,0,0,0,1.83-4c0-3.19-2.25-4.82-6.75-4.87h-5.88v10.11Zm1.19,15.06a9.1,9.1,0,0,0,5.54-1.53,4.85,4.85,0,0,0,2.08-4.09,5,5,0,0,0-2-4.39,9.35,9.35,0,0,0-5.6-1.49h-6.61v11.48h6.64ZM303,91.81v28.72h14.77v3.56h-18.6V91.81Zm74.38,0v3.56H360.9v10.12h15.36v3.56H360.9v11.48h17.27v3.56H357.06V91.81ZM428.67,91c3.91,0,6.93,1.26,9,3.78l-3.15,2.74c-1.21-1.91-3.16-2.89-5.87-3a8,8,0,0,0-5,1.46,4.73,4.73,0,0,0-1.9,4,4.35,4.35,0,0,0,1.46,3.46,15.69,15.69,0,0,0,5.47,2.5q5.19,1.51,7.36,3.67a7.89,7.89,0,0,1,2.16,5.85,8.24,8.24,0,0,1-3.19,6.83,12.79,12.79,0,0,1-8.15,2.61A14,14,0,0,1,421,123.7a9.32,9.32,0,0,1-4-3.29l3.28-2.69a7,7,0,0,0,2.92,2.67,8.65,8.65,0,0,0,4,.94,7.78,7.78,0,0,0,4.94-1.62,4.88,4.88,0,0,0,2.08-4,4.64,4.64,0,0,0-1.21-3.38,9.69,9.69,0,0,0-4-2.09l-3.7-1.23a12.55,12.55,0,0,1-5.86-3.52,8,8,0,0,1-1.7-5.21,8.33,8.33,0,0,1,3.05-6.68A12,12,0,0,1,428.67,91Z"/></g></g></g></svg>